HIERARCHY
ROOT root
{
	OFFSET	0	13.1	24.9
	CHANNELS 6  Xposition Yposition Zposition Xrotation Yrotation Zrotation
	JOINT spine_1
	{
		OFFSET	0	9.99999	0
		CHANNELS 3  Xrotation Yrotation Zrotation
		JOINT spine_2
		{
			OFFSET	0	112	-10
			CHANNELS 3  Xrotation Yrotation Zrotation
			JOINT spine_3
			{
				OFFSET	0	206.5	19.3
				CHANNELS 3  Xrotation Yrotation Zrotation
				JOINT spine_4
				{
					OFFSET	0	110.4	14.6
					CHANNELS 3  Xrotation Yrotation Zrotation
					JOINT neck_1
					{
						OFFSET	0	71.8	-50.3
						CHANNELS 3  Xrotation Yrotation Zrotation
						JOINT neck_2
						{
							OFFSET	0	86.2	-25.8
							CHANNELS 3  Xrotation Yrotation Zrotation
							JOINT head_ee
							{
								OFFSET	0	179.8	-8.7
								CHANNELS 3  Xrotation Yrotation Zrotation
								End Site
								{
									OFFSET	1	0	0
								}
							}
						}
					}
					JOINT left_clavicle
					{
						OFFSET	-43.2	22.4	-70.8
						CHANNELS 3  Xrotation Yrotation Zrotation
						JOINT left_shoulder
						{
							OFFSET	-93.9	-5.79999	48.7
							CHANNELS 3  Xrotation Yrotation Zrotation
							JOINT left_elbow
							{
								OFFSET	-291.4	-30.8	15.2
								CHANNELS 3  Xrotation Yrotation Zrotation
								JOINT left_lowarm_twist
								{
									OFFSET	-110.7	-3.89999	13.6
									CHANNELS 3  Xrotation Yrotation Zrotation
									JOINT left_hand
									{
										OFFSET	-110.7	-3.89999	13.6
										CHANNELS 3  Xrotation Yrotation Zrotation
										JOINT left_ee
										{
											OFFSET	-80.8	-5.10001	12.1
											CHANNELS 3  Xrotation Yrotation Zrotation
											End Site
											{
												OFFSET	1	0	0
											}
										}
									}
								}
							}
						}
					}
					JOINT right_clavicle
					{
						OFFSET	43.2	22.4	-70.8
						CHANNELS 3  Xrotation Yrotation Zrotation
						JOINT right_shoulder
						{
							OFFSET	93.9	-5.79999	48.7
							CHANNELS 3  Xrotation Yrotation Zrotation
							JOINT right_elbow
							{
								OFFSET	291.4	-30.8	15.2
								CHANNELS 3  Xrotation Yrotation Zrotation
								JOINT right_lowarm_twist
								{
									OFFSET	110.7	-3.89999	13.6
									CHANNELS 3  Xrotation Yrotation Zrotation
									JOINT right_hand
									{
										OFFSET	110.7	-3.89999	13.6
										CHANNELS 3  Xrotation Yrotation Zrotation
										JOINT right_ee
										{
											OFFSET	80.8	-5.10001	12.1
											CHANNELS 3  Xrotation Yrotation Zrotation
											End Site
											{
												OFFSET	1	0	0
											}
										}
									}
								}
							}
						}
					}
				}
			}
		}
	}
	JOINT left_hip
	{
		OFFSET	-82.8	-127.5	0.300001
		CHANNELS 3  Xrotation Yrotation Zrotation
		JOINT left_knee
		{
			OFFSET	-28.2	-396.7	2.2
			CHANNELS 3  Xrotation Yrotation Zrotation
			JOINT left_ankle
			{
				OFFSET	-11.7	-411.3	35.4
				CHANNELS 3  Xrotation Yrotation Zrotation
				JOINT left_toes
				{
					OFFSET	0	-60	-88.6
					CHANNELS 3  Xrotation Yrotation Zrotation
					JOINT left_foot_ee
					{
						OFFSET	-22.5	-16.5	-42.2
						CHANNELS 3  Xrotation Yrotation Zrotation
						End Site
						{
							OFFSET	1	0	0
						}
					}
				}
			}
		}
	}
	JOINT right_hip
	{
		OFFSET	82.8	-127.5	0.300001
		CHANNELS 3  Xrotation Yrotation Zrotation
		JOINT right_knee
		{
			OFFSET	28.2	-396.7	2.2
			CHANNELS 3  Xrotation Yrotation Zrotation
			JOINT right_ankle
			{
				OFFSET	11.7	-411.3	35.4
				CHANNELS 3  Xrotation Yrotation Zrotation
				JOINT right_toes
				{
					OFFSET	0	-60	-88.6
					CHANNELS 3  Xrotation Yrotation Zrotation
					JOINT right_foot_ee
					{
						OFFSET	22.5	-16.5	-42.2
						CHANNELS 3  Xrotation Yrotation Zrotation
						End Site
						{
							OFFSET	1	0	0
						}
					}
				}
			}
		}
	}
}
MOTION
Frames: 10
Frame Time: 0.02
3504.35861973 755.211 -1492.839595 50.8199460126 80.6160187907 -52.8764032155 -1.4032 0.388873 1.03187 -1.40266 0.322428 1.05452 -1.39605 0.0668232 1.10068 -1.39766 0.239806 1.07632 -13.1389 7.40519 2.72927 -13.2194 12.3916 4.83512 -0.0 0.0 -0.0 -0.243541 24.4382 2.49435 -10.9128 -12.4851 69.4589 0.633582 -17.425 0.0970939 13.2459 0.275217 -1.66591 -0.658761 13.6093 1.46032 -0.0 0.0 -0.0 8.57413 28.6686 -15.398 -4.28949 35.1448 -53.3757 0.28438 8.01887 -0.0199329 7.88505 -0.21035 0.984471 1.18954 -29.447 -18.118 0.0 0.0 0.0 7.12744 15.1073 -1.60257 -17.1344 0.318746 2.60034 23.9658 22.6212 -3.33649 -5.03807 0.0 0.0 -0.0 0.0 -0.0 -2.28535 14.3928 -2.24241 -28.7637 -0.0894309 -4.36713 38.2857 0.449208 4.72889 -28.791 0.0 0.0 0.0 0.0 0.0 
3505.2303865 755.211 -1495.92792019 40.7568130484 78.8371437906 -42.6513961192 -1.4032 0.388873 1.03187 -1.40266 0.322428 1.05452 -1.39605 0.0668232 1.10068 -1.39766 0.239806 1.07632 -13.1389 7.40519 2.72927 -13.2194 12.3916 4.83512 -0.0 0.0 -0.0 -0.243541 24.4382 2.49435 -10.9128 -12.4851 69.4589 0.633582 -17.425 0.0970939 13.2459 0.275217 -1.66591 -0.658761 13.6093 1.46032 -0.0 0.0 -0.0 8.57413 28.6686 -15.398 -4.28949 35.1448 -53.3757 0.28438 8.01887 -0.0199329 7.88505 -0.21035 0.984471 1.18954 -29.447 -18.118 0.0 0.0 0.0 7.12744 15.1073 -1.60257 -17.1344 0.318746 2.60034 23.9658 22.6212 -3.33649 -5.03807 0.0 0.0 -0.0 0.0 -0.0 -2.28535 14.3928 -2.24241 -28.7637 -0.0894309 -4.36713 38.2857 0.449208 4.72889 -28.791 0.0 0.0 0.0 0.0 0.0 
3505.86641898 755.211 -1497.90241819 35.8832825396 77.547292668 -37.6729565649 -1.4032 0.388873 1.03187 -1.40266 0.322428 1.05452 -1.39605 0.0668232 1.10068 -1.39766 0.239806 1.07632 -13.1389 7.40519 2.72927 -13.2194 12.3916 4.83512 -0.0 0.0 -0.0 -0.243541 24.4382 2.49435 -10.9128 -12.4851 69.4589 0.633582 -17.425 0.0970939 13.2459 0.275217 -1.66591 -0.658761 13.6093 1.46032 -0.0 0.0 -0.0 8.57413 28.6686 -15.398 -4.28949 35.1448 -53.3757 0.28438 8.01887 -0.0199329 7.88505 -0.21035 0.984471 1.18954 -29.447 -18.118 0.0 0.0 0.0 7.12744 15.1073 -1.60257 -17.1344 0.318746 2.60034 23.9658 22.6212 -3.33649 -5.03807 0.0 0.0 -0.0 0.0 -0.0 -2.28535 14.3928 -2.24241 -28.7637 -0.0894309 -4.36713 38.2857 0.449208 4.72889 -28.791 0.0 0.0 0.0 0.0 0.0 
3497.58308996 754.135 -1500.35804641 46.0117635791 78.3249943607 -47.8388627209 -1.87337 0.393633 1.13329 -1.87272 0.320726 1.15604 -1.86535 0.031597 1.19928 -1.86729 0.220592 1.17925 -13.1638 6.32995 3.20645 -13.2013 10.0474 4.96145 -0.0 0.0 -0.0 -0.790054 23.9515 1.69849 -11.3009 -12.4913 69.9678 0.62055 -17.0877 0.0932282 13.9459 0.278972 -1.75524 -0.484585 15.3232 3.26216 -0.0 0.0 -0.0 8.60812 28.9265 -15.4428 -3.21121 36.8519 -52.518 0.29282 8.25363 -0.0211274 7.85741 -0.20985 0.980977 1.1227 -29.267 -17.6892 0.0 0.0 0.0 11.025 14.6096 -2.91064 -21.8636 0.268843 3.32405 19.1465 25.1451 -2.75814 -4.95069 0.0 0.0 -0.0 0.0 -0.0 -6.20035 13.1547 -1.79496 -25.0025 -0.20282 -3.80115 36.9612 3.21643 4.63609 -29.935 0.0 0.0 0.0 0.0 0.0 
3489.41152528 755.47 -1501.29069492 54.0123107932 79.8131362073 -55.855140858 -2.13526 0.488041 1.25517 -2.13447 0.407189 1.28367 -2.12414 0.0785724 1.3444 -2.12655 0.289891 1.31513 -13.5784 7.30784 2.28707 -13.6748 12.5163 4.4347 -0.0 0.0 -0.0 -0.950009 24.3996 1.54328 -12.2522 -12.1439 68.9799 0.556249 -15.4057 0.0752366 14.4563 0.281022 -1.8204 -0.625275 16.2909 2.7977 -0.0 0.0 -0.0 8.67536 28.9165 -15.5923 -2.32993 38.2653 -51.6152 0.301293 8.48902 -0.022361 8.03788 -0.213081 1.0038 1.04346 -29.3834 -17.272 0.0 0.0 0.0 11.7315 14.2566 -2.90028 -19.8039 0.297921 3.00936 17.0707 26.68 -2.50152 -4.63326 0.0 0.0 -0.0 0.0 -0.0 -8.19547 10.607 -1.77815 -21.725 -0.271155 -3.3029 36.6877 4.44192 4.62656 -29.6448 0.0 0.0 0.0 0.0 0.0 
3481.71167821 754.473 -1500.31179979 66.6495790606 80.4665481354 -68.5832586524 -2.32913 0.550671 1.26203 -2.32837 0.469256 1.2945 -2.31645 0.13148 1.37063 -2.31891 0.346275 1.33267 -12.9788 7.01315 1.71831 -13.0674 12.2645 3.73799 -0.0 0.0 -0.0 -1.1016 24.3743 1.33655 -12.8903 -12.0197 68.755 0.527784 -14.6521 0.0678552 14.7118 0.28183 -1.85303 -0.594334 17.2062 3.36835 -0.0 0.0 -0.0 8.86131 29.5695 -15.9245 -1.6847 39.2498 -51.1139 0.303999 8.56415 -0.0227622 8.01048 -0.212595 1.00034 1.00717 -29.2584 -17.0318 0.0 0.0 0.0 14.4241 14.0566 -3.30308 -21.529 0.274335 3.27301 14.8739 27.8662 -2.21356 -4.38936 0.0 0.0 -0.0 0.0 -0.0 -10.3553 9.70201 -1.67234 -19.554 -0.300679 -2.97111 36.2416 5.69639 4.60321 -29.8889 0.0 0.0 0.0 0.0 0.0 
3481.67015662 754.473 -1500.16084666 67.1614491895 80.5031341012 -69.1022692594 -2.32913 0.550671 1.26203 -2.32837 0.469256 1.2945 -2.31645 0.13148 1.37063 -2.31891 0.346275 1.33267 -12.9788 7.01315 1.71831 -13.0674 12.2645 3.73799 -0.0 0.0 -0.0 -1.1016 24.3743 1.33655 -12.8903 -12.0197 68.755 0.527784 -14.6521 0.0678552 14.7118 0.28183 -1.85303 -0.594334 17.2062 3.36835 -0.0 0.0 -0.0 8.86131 29.5695 -15.9245 -1.6847 39.2498 -51.1139 0.303999 8.56415 -0.0227622 8.01048 -0.212595 1.00034 1.00717 -29.2584 -17.0318 0.0 0.0 0.0 14.4241 14.0566 -3.30308 -21.529 0.274335 3.27301 14.8739 27.8662 -2.21356 -4.38936 0.0 0.0 -0.0 0.0 -0.0 -10.3553 9.70201 -1.67234 -19.554 -0.300679 -2.97111 36.2416 5.69639 4.60321 -29.8889 0.0 0.0 0.0 0.0 0.0 
3471.90894752 754.872 -1499.48970615 78.1562513176 80.5205017934 -80.2637162583 -2.60931 0.629548 1.40616 -2.60837 0.538804 1.44336 -2.59305 0.154318 1.53288 -2.59611 0.394445 1.48929 -12.9611 6.95709 1.45505 -13.0527 12.3216 3.46873 -0.0 0.0 -0.0 -1.29947 24.37 1.07054 -13.5476 -11.8251 68.4073 0.49814 -13.8618 0.0605544 15.05 0.282676 -1.89621 -0.562797 18.0179 3.89566 -0.0 0.0 -0.0 8.92039 29.2895 -16.0889 0.266658 40.7068 -49.4466 0.301213 8.48679 -0.0223491 8.04056 -0.213128 1.00414 0.970611 -29.3554 -16.8526 0.0 0.0 0.0 15.4583 13.5456 -3.5604 -20.4267 0.290322 3.10461 13.4788 28.4984 -2.02397 -4.47219 0.0 0.0 -0.0 0.0 -0.0 -12.6796 8.69105 -1.8782 -17.9008 -0.314718 -2.71785 36.7959 6.42594 4.66711 -29.8537 0.0 0.0 0.0 0.0 0.0 
3469.85870928 750.252 -1499.00406344 91.4890032902 80.7687472262 -93.6331285344 -2.85543 0.486932 1.55036 -2.85418 0.387304 1.57819 -2.84148 -0.0335823 1.62466 -2.8451 0.223391 1.60959 -13.1706 5.95628 0.763375 -13.2471 10.8602 2.52668 -0.0 0.0 -0.0 -1.45738 23.642 0.748032 -14.3027 -11.6824 68.2665 0.44402 -12.4051 0.0482564 14.9856 0.282535 -1.88799 -0.463163 18.1534 4.55455 -0.0 0.0 -0.0 9.54345 28.6415 -17.5467 5.75156 46.2824 -47.1708 0.331527 9.32656 -0.0270426 7.84251 -0.20958 0.979093 1.07629 -29.3652 -17.4529 0.0 0.0 0.0 17.8002 12.7241 -4.15407 -18.6268 0.309453 2.82911 12.218 28.0805 -1.83731 -4.45836 0.0 0.0 -0.0 0.0 -0.0 -14.3404 8.41175 -2.15224 -15.009 -0.32169 -2.27427 38.6757 7.03691 4.84935 -29.9026 0.0 0.0 0.0 0.0 0.0 
3469.92109792 750.252 -1499.27125375 90.5878889963 80.7714015444 -92.7201946332 -2.85543 0.486932 1.55036 -2.85418 0.387304 1.57819 -2.84148 -0.0335823 1.62466 -2.8451 0.223391 1.60959 -13.1706 5.95628 0.763375 -13.2471 10.8602 2.52668 -0.0 0.0 -0.0 -1.45738 23.642 0.748032 -14.3027 -11.6824 68.2665 0.44402 -12.4051 0.0482564 14.9856 0.282535 -1.88799 -0.463163 18.1534 4.55455 -0.0 0.0 -0.0 9.54345 28.6415 -17.5467 5.75156 46.2824 -47.1708 0.331527 9.32656 -0.0270426 7.84251 -0.20958 0.979093 1.07629 -29.3652 -17.4529 0.0 0.0 0.0 17.8002 12.7241 -4.15407 -18.6268 0.309453 2.82911 12.218 28.0805 -1.83731 -4.45836 0.0 0.0 -0.0 0.0 -0.0 -14.3404 8.41175 -2.15224 -15.009 -0.32169 -2.27427 38.6757 7.03691 4.84935 -29.9026 0.0 0.0 0.0 0.0 0.0 
